<svg width="15" height="19" viewBox="0 0 15 19" fill="none" xmlns="http://www.w3.org/2000/svg">
<path d="M14.1263 8.60032C14.8866 7.4063 15.1415 5.95916 14.8348 4.57725C14.5281 3.19534 13.685 1.99186 12.491 1.23156C11.297 0.471265 9.84982 0.216432 8.46791 0.523122C7.086 0.829811 5.88252 1.6729 5.12223 2.86692L5.08116 2.92165L5.04894 2.98202C4.31157 4.16429 4.06805 5.58887 4.37082 6.94895C4.41082 7.13563 4.46184 7.31978 4.52362 7.50043L0.744113 16.0937C0.629589 16.3537 0.612054 16.6461 0.694692 16.9179C0.777329 17.1897 0.954662 17.4229 1.19451 17.5751L2.46058 18.3812C2.69997 18.5342 2.98626 18.5962 3.2675 18.5561C3.54873 18.516 3.80627 18.3765 3.99339 18.1627L10.1811 11.1028C10.3709 11.0824 10.5593 11.0507 10.7454 11.008C12.1059 10.707 13.2937 9.88369 14.0531 8.71542L14.0941 8.66069L14.1263 8.60032ZM13.6452 4.89068C13.8406 5.76632 13.7448 6.68183 13.3724 7.49804L6.43998 3.08384C6.9416 2.49734 7.59687 2.06239 8.33212 1.82787C9.06737 1.59334 9.85347 1.56855 10.602 1.75626C11.3506 1.94398 12.032 2.33678 12.5696 2.89049C13.1072 3.4442 13.4797 4.13688 13.6452 4.89068ZM3.09762 17.3808L1.83156 16.5746L5.22361 8.87317C6.03409 10.0178 7.26105 10.7991 8.6411 11.0493L3.09762 17.3808ZM5.53012 6.69166C5.33467 5.81602 5.43047 4.90051 5.80293 4.08429L6.43998 3.08384L13.3724 7.49804C12.8707 8.08454 11.5784 9.51995 10.8432 9.75447C10.1079 9.989 9.32182 10.0138 8.57325 9.82607C7.82468 9.63836 7.1433 9.24556 6.60571 8.69185C6.06813 8.13814 5.69564 7.44545 5.53012 6.69166Z" fill="#C4C4C4"/>
</svg>
